<svg xmlns="http://www.w3.org/2000/svg" width="22" height="22" viewBox="0 0 22 22">
  <g id="instagram" transform="translate(0 -0.001)">
    <path id="Vector" d="M5.645,0A5.645,5.645,0,1,0,11.29,5.645,5.644,5.644,0,0,0,5.645,0Zm0,9.309A3.664,3.664,0,1,1,9.309,5.645,3.663,3.663,0,0,1,5.645,9.309Z" transform="translate(5.359 5.352)" fill="#fff"/>
    <path id="Vector-2" data-name="Vector" d="M15.536.069c-2.024-.094-7.037-.09-9.063,0A6.574,6.574,0,0,0,1.856,1.848C-.259,3.964.011,6.815.011,11c0,4.279-.238,7.064,1.845,9.147C3.98,22.266,6.872,21.988,11,21.988c4.239,0,5.7,0,7.2-.577,2.038-.791,3.576-2.612,3.726-5.884.1-2.025.09-7.037,0-9.063C21.749,2.6,19.676.26,15.536.069Zm3.2,18.674c-1.387,1.387-3.311,1.263-7.762,1.263-4.583,0-6.421.068-7.762-1.277C1.67,17.192,1.95,14.724,1.95,10.981c0-5.065-.52-8.712,4.563-8.972,1.168-.041,1.512-.055,4.451-.055l.041.028c4.885,0,8.717-.512,8.948,4.57.052,1.16.064,1.508.064,4.443,0,4.53.085,6.379-1.278,7.749Z" transform="translate(0 0.001)" fill="#fff"/>
    <path id="Vector-3" data-name="Vector" d="M2.638,1.319A1.319,1.319,0,1,1,1.319,0,1.319,1.319,0,0,1,2.638,1.319Z" transform="translate(15.553 3.81)" fill="#fff"/>
  </g>
</svg>
