<svg id="linkedin" xmlns="http://www.w3.org/2000/svg" width="22" height="22" viewBox="0 0 22 22">
  <path id="Vector" d="M6.875,18.176H3.868V8.465H6.875Zm.3-12.8A1.762,1.762,0,1,0,5.415,7.133,1.762,1.762,0,0,0,7.175,5.371Zm10.957,7.462c0-2.607-.551-4.54-3.6-4.54A3.121,3.121,0,0,0,11.69,9.786h0V8.465H8.766v9.711h2.922V13.354c0-1.263.321-2.486,1.887-2.486,1.544,0,1.594,1.444,1.594,2.566v4.741h2.965ZM22,19.422V2.578A2.581,2.581,0,0,0,19.422,0H2.578A2.581,2.581,0,0,0,0,2.578V19.422A2.581,2.581,0,0,0,2.578,22H19.422A2.581,2.581,0,0,0,22,19.422Zm-2.578-17.7a.86.86,0,0,1,.859.859V19.422a.86.86,0,0,1-.859.859H2.578a.86.86,0,0,1-.859-.859V2.578a.86.86,0,0,1,.859-.859Z" transform="translate(0 0)" fill="#fff"/>
</svg>
