<svg xmlns="http://www.w3.org/2000/svg" width="22" height="22" viewBox="0 0 22 22">
  <g id="whatsapp" transform="translate(0 -0.229)">
    <path id="Vector" d="M18.795,3.2a10.964,10.964,0,0,0-18.7,7.7,10.842,10.842,0,0,0,1.462,5.45L0,22l5.807-1.516a10.984,10.984,0,0,0,5.235,1.327h0A10.944,10.944,0,0,0,22,10.909,10.808,10.808,0,0,0,18.795,3.2ZM11.046,19.97h0a9.127,9.127,0,0,1-4.634-1.263l-.332-.2-3.446.9.92-3.344-.217-.343A9.058,9.058,0,0,1,11.05,1.841a9.064,9.064,0,1,1,0,18.129Zm4.994-6.786c-.274-.136-1.619-.8-1.87-.886s-.433-.136-.616.136-.707.886-.867,1.068-.319.2-.593.068a7.484,7.484,0,0,1-2.2-1.352,8.222,8.222,0,0,1-1.523-1.887c-.159-.273,0-.406.12-.556a7.707,7.707,0,0,0,.684-.932.5.5,0,0,0-.023-.477c-.068-.136-.616-1.477-.844-2.023s-.448-.459-.616-.468-.342-.01-.525-.01a1.007,1.007,0,0,0-.73.341A3.049,3.049,0,0,0,5.48,8.48,5.286,5.286,0,0,0,6.6,11.3a12.177,12.177,0,0,0,4.676,4.113,15.715,15.715,0,0,0,1.56.574,3.77,3.77,0,0,0,1.724.108,2.82,2.82,0,0,0,1.847-1.3,2.266,2.266,0,0,0,.159-1.3c-.068-.114-.251-.182-.524-.318Z" transform="translate(0 0.229)" fill="#fff"/>
  </g>
</svg>
